/* XPM */
static char*EmpHat[]={
"32 32 7 1",
"# c #4b7b82",
"e c #000000",
". c None",
"d c #400000",
"a c #0000ff",
"b c #ffffff",
"c c #ff0000",
"................................",
"................................",
"................................",
"................................",
"................................",
"................................",
"....................#####.......",
".................aabbccc#.......",
".................aaabccc#..#....",
"..............ddddaabbcc#.......",
"............ddddddaaabc####.....",
"...........ddeeddaaaaaa##.#.....",
"..........ddeedddabbbbaddd####..",
"..........ddeddeaabccbaaddddee..",
".........ddedededabccbaaddeee...",
"........dedeeededabbbbaddee.....",
"........dedeeeeeeeaaaaeeee......",
"........ddeeeeddeedaaee.........",
".......ddeedeeeddddeee..........",
".......deeeeeededeee............",
"......ddedeeeddeeee.............",
"......deeeeddeeee...............",
"......deeeddeee.................",
".....dddddeee...................",
".....edeeee.....................",
"....eddee.......................",
"....eeee........................",
"....ee..........................",
"................................",
"................................",
"................................",
"................................"};
